<svg xmlns="http://www.w3.org/2000/svg" width="32" height="28" fill="none"><path fill="#FE610B" d="M31.585 20.826A54.14 54.14 0 0 1 20.068 1.614a1.196 1.196 0 0 0-1.131-.796 19.548 19.548 0 0 0-5.955 0c-.51 0-.966.322-1.13.796A54.184 54.184 0 0 1 .315 20.826 1.15 1.15 0 0 0 .06 21.98a16.21 16.21 0 0 0 2.754 4.982c.283.349.748.519 1.195.42a56.29 56.29 0 0 1 23.883 0c.447.099.912-.071 1.195-.42a16.21 16.21 0 0 0 2.754-4.982 1.15 1.15 0 0 0-.256-1.154Zm-3.957 2.639-4.825-2.79a13.695 13.695 0 0 0-13.706 0l-4.824 2.79-.538-.895 5.07-2.933c4.104-2.38 6.621-6.709 6.621-11.377V3.483h1.067V8.26c0 4.678 2.517 8.998 6.62 11.377l5.062 2.933-.547.895Z"/></svg>